HIERARCHY
ROOT Hips
{
 OFFSET 0.000000 0.000000 0.000000
 CHANNELS 6 Xposition Yposition Zposition Yrotation Xrotation Zrotation
 JOINT Chest
 {
  OFFSET 0.000000 10.354800 0.006500
  CHANNELS 3 Yrotation Xrotation Zrotation
  JOINT Chest2
  {
   OFFSET 0.000000 10.435800 -0.013200
   CHANNELS 3 Yrotation Xrotation Zrotation
   JOINT Chest3
   {
    OFFSET 0.000000 10.393700 0.000000
    CHANNELS 3 Yrotation Xrotation Zrotation
    JOINT Chest4
    {
     OFFSET 0.000000 10.383100 0.000000
     CHANNELS 3 Yrotation Xrotation Zrotation
     JOINT Neck
     {
      OFFSET 0.000000 15.694000 0.000000
      CHANNELS 3 Yrotation Xrotation Zrotation
      JOINT Head
      {
       OFFSET 0.000000 9.711000 -0.028000
       CHANNELS 3 Yrotation Xrotation Zrotation
       End Site
       {
        OFFSET 0.000000 18.578700 -0.014800
       }
      }
     }
     JOINT RightCollar
     {
      OFFSET -3.157200 10.367500 0.000000
      CHANNELS 3 Yrotation Xrotation Zrotation
      JOINT RightShoulder
      {
       OFFSET -14.482500 0.000000 0.000000
       CHANNELS 3 Yrotation Xrotation Zrotation
       JOINT RightElbow
       {
        OFFSET 0.000000 -31.707800 0.000000
        CHANNELS 3 Yrotation Xrotation Zrotation
        JOINT RightWrist
        {
         OFFSET 0.000000 -25.659300 0.000000
         CHANNELS 3 Yrotation Xrotation Zrotation
         End Site
         {
          OFFSET 0.000000 -18.994300 0.000000
         }
        }
       }
      }
     }
     JOINT LeftCollar
     {
      OFFSET 3.157200 10.367500 0.000000
      CHANNELS 3 Yrotation Xrotation Zrotation
      JOINT LeftShoulder
      {
       OFFSET 14.482500 0.000000 0.000000
       CHANNELS 3 Yrotation Xrotation Zrotation
       JOINT LeftElbow
       {
        OFFSET 0.000000 -31.707800 0.000000
        CHANNELS 3 Yrotation Xrotation Zrotation
        JOINT LeftWrist
        {
         OFFSET 0.000000 -25.659300 0.000000
         CHANNELS 3 Yrotation Xrotation Zrotation
         End Site
         {
          OFFSET 0.000000 -18.994300 0.000000
         }
        }
       }
      }
     }
    }
   }
  }
 }
 JOINT RightHip
 {
  OFFSET -8.365600 -0.032100 -0.003200
  CHANNELS 3 Yrotation Xrotation Zrotation
  JOINT RightKnee
  {
   OFFSET 0.000000 -43.980000 0.003100
   CHANNELS 3 Yrotation Xrotation Zrotation
   JOINT RightAnkle
   {
    OFFSET 0.000000 -42.882800 0.005200
    CHANNELS 3 Yrotation Xrotation Zrotation
    JOINT RightToe
    {
     OFFSET 0.000000 -4.915500 10.826300
     CHANNELS 3 Yrotation Xrotation Zrotation
     End Site
     {
      OFFSET 0.000000 -1.517500 6.175900
     }
    }
   }
  }
 }
 JOINT LeftHip
 {
  OFFSET 8.365600 -0.032100 -0.003200
  CHANNELS 3 Yrotation Xrotation Zrotation
  JOINT LeftKnee
  {
   OFFSET 0.000000 -43.980000 0.003100
   CHANNELS 3 Yrotation Xrotation Zrotation
   JOINT LeftAnkle
   {
    OFFSET 0.000000 -42.882800 0.005200
    CHANNELS 3 Yrotation Xrotation Zrotation
    JOINT LeftToe
    {
     OFFSET 0.000000 -4.915500 10.826300
     CHANNELS 3 Yrotation Xrotation Zrotation
     End Site
     {
      OFFSET 0.000000 -1.517500 6.175900
     }
    }
   }
  }
 }
}
MOTION
Frames: 13
Frame Time: 0.008333
0.000000 91.618600 0.000000 0.000000 -5.767877 0.000000 0.000000 11.653817 0.000000 0.000000 -5.885947 0.000000 0.000000 -0.000000 0.000000 0.000000 -0.000000 0.000000 0.000000 12.528835 0.000000 0.000000 0.711642 0.000000 0.000000 -0.000000 0.000000 0.000000 0.000000 -90.000000 0.000000 -2.309062 0.000000 0.000000 2.309062 0.000000 0.000000 -0.000000 0.000000 0.000000 -0.000000 90.000000 0.000000 -2.309062 0.000000 0.000000 2.309062 0.000000 0.000000 8.520406 0.000000 0.000000 1.905762 0.000000 -0.000000 -4.658285 0.000000 0.000000 -0.000000 0.000000 0.000000 8.520406 0.000000 0.000000 1.905762 0.000000 -0.000000 -4.658285 0.000000 0.000000 -0.000000 0.000000
-10.171857 147.429093 13.245389 177.089141 -23.097828 -3.586999 0.404721 13.728158 3.980293 -0.008754 1.194525 0.350074 -0.000306 2.018015 0.583719 0.292085 12.339411 3.642014 -2.552093 21.725325 -2.164903 -2.245247 -2.522161 -1.735918 3.711467 3.610673 -3.296785 18.463551 -14.441032 -8.672746 57.009773 -40.163351 -40.509530 -1.501622 -6.894146 -15.899322 -4.553533 6.297217 0.521022 -12.265580 -19.441157 0.844603 -56.706467 -35.158233 48.087925 -14.163930 4.635067 12.616285 5.223088 -54.211106 0.721843 -151.529883 76.612282 -144.993123 0.381855 -25.071544 0.753903 0.012729 -0.068941 0.004102 -12.664594 -53.467461 12.388141 149.897467 77.006802 144.856818 -1.925561 -23.689847 -0.177522 0.005425 0.059728 0.000847
-9.012434 140.858878 12.985192 177.105529 -23.094891 -3.614897 0.390338 13.727253 4.005205 -0.005800 1.193785 0.347195 -0.008614 2.018738 0.591663 0.289561 12.338759 3.638021 -2.549940 21.729347 -2.170852 -2.240392 -2.506373 -1.746997 3.724203 3.613949 -3.296096 18.461568 -14.438576 -8.678812 57.040764 -40.157367 -40.548843 -1.498648 -6.877440 -15.871894 -4.548487 6.299225 0.519154 -12.265544 -19.442462 0.842473 -56.706039 -35.153020 48.098012 -14.163211 4.645473 12.620398 5.172338 -54.223110 0.765074 -151.542629 76.599843 -145.007980 0.383553 -25.096007 0.753638 0.010218 -0.053144 0.004636 -12.708705 -53.459497 12.426261 149.869929 77.014050 144.829146 -1.937249 -23.667927 -0.176425 0.006593 0.041384 0.002995
-8.054762 135.448505 12.770303 177.122974 -23.095429 -3.653521 0.379398 13.728318 4.041222 -0.006324 1.193804 0.347467 -0.006919 2.019785 0.589641 0.285601 12.338522 3.638236 -2.552430 21.732223 -2.172344 -2.238208 -2.503809 -1.752118 3.729666 3.618786 -3.293231 18.462179 -14.434892 -8.682090 57.074651 -40.153164 -40.598025 -1.482126 -6.845244 -15.820448 -4.549352 6.299182 0.518912 -12.261146 -19.443041 0.839722 -56.703351 -35.149009 48.096074 -14.157131 4.638348 12.635132 5.102607 -54.231145 0.827670 -151.559856 76.589257 -145.028683 0.391569 -25.131720 0.751357 0.003652 -0.021299 0.001658 -12.765228 -53.446214 12.477941 149.837953 77.021133 144.797541 -1.929064 -23.636446 -0.181524 0.001952 0.014883 0.000887
-7.366302 131.540513 12.615195 177.141433 -23.091006 -3.664162 0.362999 13.732212 4.053539 -0.005613 1.189678 0.342943 -0.008077 2.018112 0.587590 0.279966 12.338160 3.638041 -2.553675 21.733123 -2.173063 -2.236416 -2.503253 -1.756383 3.736809 3.621967 -3.291378 18.453591 -14.433246 -8.683383 57.119148 -40.146977 -40.650192 -1.477614 -6.813505 -15.768365 -4.541745 6.300657 0.516112 -12.260179 -19.444467 0.835976 -56.706688 -35.147411 48.098577 -14.130018 4.629873 12.662632 5.080711 -54.237925 0.833356 -151.626506 76.587409 -145.095164 0.381530 -25.146147 0.751890 0.002609 -0.014170 0.001184 -12.786837 -53.446113 12.483785 149.784385 77.022942 144.746648 -1.942170 -23.626351 -0.183592 0.002258 0.008598 0.001025
-6.932106 129.071736 12.517932 177.152191 -23.080538 -3.665050 0.351269 13.726780 4.054327 -0.008381 1.193106 0.347354 -0.010087 2.017169 0.587363 0.275581 12.332983 3.631997 -2.553123 21.731923 -2.174624 -2.232823 -2.503200 -1.761256 3.743471 3.625173 -3.294195 18.455170 -14.428662 -8.682958 57.162795 -40.138821 -40.711096 -1.474959 -6.777656 -15.716067 -4.531775 6.302305 0.519177 -12.253422 -19.446015 0.821959 -56.709501 -35.151717 48.095526 -14.122673 4.628203 12.685477 5.073793 -54.250487 0.828373 -151.636759 76.582421 -145.105983 0.382401 -25.151320 0.750855 0.003988 -0.008373 0.001810 -12.793617 -53.454673 12.481784 149.765332 77.025789 144.727104 -1.970570 -23.619871 -0.174032 -0.000223 0.005163 -0.000101
-6.691867 127.714090 12.463683 177.152141 -23.076332 -3.668375 0.346722 13.727325 4.059844 -0.008891 1.192916 0.347260 -0.005521 2.015063 0.586127 0.269612 12.333417 3.635687 -2.557047 21.727627 -2.179709 -2.228097 -2.503375 -1.764361 3.748455 3.624315 -3.301730 18.477249 -14.411024 -8.686246 57.200071 -40.133015 -40.785663 -1.482924 -6.744932 -15.668390 -4.525061 6.300431 0.517431 -12.235100 -19.443042 0.805554 -56.715679 -35.153899 48.094170 -14.123977 4.618756 12.701978 5.073359 -54.254522 0.821636 -151.665466 76.583530 -145.130046 0.390677 -25.156192 0.747220 0.000342 -0.005140 0.000155 -12.790362 -53.456172 12.484000 149.755150 77.029362 144.717102 -1.934430 -23.617725 -0.190378 0.005804 0.003859 0.002635
-6.576516 127.067477 12.437621 177.144030 -23.072042 -3.669116 0.343365 13.728064 4.062919 -0.002557 1.190192 0.346571 -0.002412 2.015508 0.586790 0.261025 12.335114 3.635168 -2.553204 21.722582 -2.182454 -2.236482 -2.517208 -1.761657 3.756799 3.623086 -3.304996 18.480254 -14.410850 -8.688227 57.226874 -40.126932 -40.817404 -1.493330 -6.731130 -15.648012 -4.515654 6.299772 0.518809 -12.206478 -19.429221 0.792704 -56.738077 -35.166730 48.109749 -14.130710 4.609803 12.703241 5.077250 -54.259526 0.817728 -151.691504 76.581806 -145.146564 0.398784 -25.161098 0.736476 0.000902 -0.003570 0.000410 -12.786359 -53.459436 12.489347 149.746557 77.030424 144.707846 -1.916427 -23.615519 -0.200745 0.008664 0.002633 0.003934
-6.530469 126.802735 12.426482 177.139110 -23.067748 -3.659059 0.334061 13.730189 4.053645 0.000367 1.185751 0.344898 -0.010788 2.016717 0.587121 0.253105 12.338652 3.636643 -2.538195 21.715879 -2.189865 -2.240275 -2.527328 -1.762148 3.781735 3.623695 -3.313759 18.480579 -14.406188 -8.691533 57.314408 -40.105709 -40.919052 -1.514054 -6.685137 -15.575159 -4.494007 6.300323 0.516949 -12.192720 -19.423664 0.786861 -56.732615 -35.180741 48.117750 -14.136931 4.599861 12.716762 5.092754 -54.263916 0.798166 -151.699904 76.581002 -145.154994 0.403109 -25.162189 0.735317 0.000480 -0.002342 0.000218 -12.769553 -53.465101 12.480502 149.754991 77.034081 144.721926 -2.034542 -23.612544 -0.160312 -0.001052 0.001434 -0.000478
-6.514481 126.710360 12.422517 177.136665 -23.061608 -3.651296 0.329167 13.727503 4.046634 -0.003261 1.189983 0.345622 -0.021882 2.019804 0.590257 0.257222 12.333079 3.634339 -2.537697 21.708278 -2.196210 -2.240693 -2.539901 -1.763077 3.795993 3.620566 -3.320479 18.477991 -14.394726 -8.696317 57.422154 -40.079268 -41.037198 -1.536367 -6.622497 -15.493310 -4.481367 6.299033 0.513895 -12.183713 -19.416816 0.786481 -56.736616 -35.191092 48.132942 -14.159858 4.600677 12.720424 5.104221 -54.269964 0.783937 -151.692663 76.581544 -145.148706 0.404546 -25.160814 0.736716 0.001756 -0.001599 0.000797 -12.759448 -53.472727 12.475063 149.774920 77.038446 144.746161 -2.137360 -23.610869 -0.122188 -0.010134 0.000766 -0.004601
-6.508244 126.683258 12.421295 177.124300 -23.056277 -3.648736 0.334644 13.724378 4.048942 -0.009362 1.192407 0.347053 -0.017374 2.016387 0.591125 0.253645 12.332400 3.634926 -2.540585 21.704203 -2.200158 -2.238377 -2.550169 -1.766454 3.809994 3.623083 -3.327692 18.467663 -14.379040 -8.710094 57.527673 -40.064731 -41.147144 -1.474984 -6.501792 -15.390261 -4.472097 6.300727 0.511565 -12.179623 -19.415573 0.784129 -56.738519 -35.195317 48.140724 -14.183187 4.602266 12.719130 5.119563 -54.278432 0.776362 -151.704544 76.582805 -145.155777 0.408638 -25.153495 0.734526 0.001253 -0.001564 0.000569 -12.755141 -53.480012 12.480880 149.776743 77.036853 144.744378 -2.099694 -23.606272 -0.138807 -0.007176 -0.000213 -0.003258
-6.505366 126.676642 12.420812 177.120828 -23.051323 -3.650349 0.334061 13.720063 4.054771 -0.009645 1.192311 0.347221 -0.018616 2.016472 0.590340 0.247172 12.332144 3.636580 -2.547070 21.689885 -2.199433 -2.227292 -2.544037 -1.779271 3.824373 3.623798 -3.334503 18.463235 -14.375924 -8.712878 57.636621 -40.032353 -41.257770 -1.443380 -6.398535 -15.303424 -4.468947 6.309680 0.505556 -12.170591 -19.420789 0.785078 -56.743096 -35.198003 48.150773 -14.208989 4.610829 12.712862 5.136924 -54.284098 0.758160 -151.742935 76.588686 -145.181958 0.410498 -25.149318 0.731459 -0.000495 -0.002561 -0.000225 -12.759215 -53.487499 12.485455 149.767540 77.033050 144.729678 -2.011070 -23.599516 -0.175383 0.000191 -0.000738 0.000087
-6.503338 126.675331 12.420310 177.118211 -23.047808 -3.651991 0.329782 13.718020 4.059804 -0.010276 1.192215 0.347327 -0.013316 2.015731 0.587177 0.237165 12.332749 3.639351 -2.543587 21.683800 -2.203739 -2.225167 -2.546990 -1.782257 3.839304 3.627031 -3.337737 18.465658 -14.365113 -8.729923 57.743456 -40.011918 -41.373617 -1.428651 -6.316104 -15.230232 -4.458612 6.311059 0.498916 -12.174516 -19.412520 0.788971 -56.765265 -35.188451 48.201554 -14.210149 4.614854 12.681207 5.142305 -54.286147 0.753084 -151.765256 76.596773 -145.198598 0.405610 -25.146241 0.733383 0.000161 -0.002103 0.000073 -12.761402 -53.492988 12.490808 149.768637 77.031451 144.729922 -1.975550 -23.593963 -0.192920 0.002585 -0.000995 0.001174
